HIERARCHY
ROOT root     
{
	OFFSET 0.0000 0.0000 0.0000
	CHANNELS 6 Xposition Yposition Zposition Zrotation Yrotation Xrotation
	JOINT pelvis   
	{
		OFFSET 0.0000 0.0000 0.0000
		CHANNELS 3 Zrotation Yrotation Xrotation
		JOINT thorax   
		{
			OFFSET 0.0000 23.0750 -5.0000
			CHANNELS 3 Zrotation Yrotation Xrotation
			JOINT rclavicle
			{
				OFFSET 0.0000 28.0009 0.0000
				CHANNELS 3 Zrotation Yrotation Xrotation
				JOINT rhumerus 
				{
					OFFSET -18.5725 5.5939 0.0000
					CHANNELS 3 Zrotation Yrotation Xrotation
					JOINT rradius  
					{
						OFFSET -24.8459 0.0000 0.0000
						CHANNELS 3 Zrotation Yrotation Xrotation
						JOINT rhand    
						{
							OFFSET -24.5477 0.0000 0.0000
							CHANNELS 3 Zrotation Yrotation Xrotation
							End Site
							{
								OFFSET -8.1826 0.0000 0.0000
							}
						}
					}
				}
			}
			JOINT lclavicle
			{
				OFFSET 0.0000 28.0009 0.0000
				CHANNELS 3 Zrotation Yrotation Xrotation
				JOINT lhumerus 
				{
					OFFSET 18.5725 5.5939 0.0000
					CHANNELS 3 Zrotation Yrotation Xrotation
					JOINT lradius  
					{
						OFFSET 24.8459 0.0000 0.0000
						CHANNELS 3 Zrotation Yrotation Xrotation
						JOINT lhand    
						{
							OFFSET 24.5477 0.0000 0.0000
							CHANNELS 3 Zrotation Yrotation Xrotation
							End Site
							{
								OFFSET 8.1826 0.0000 0.0000
							}
						}
					}
				}
			}
			JOINT head     
			{
				OFFSET 0.0000 35.2030 0.0000
				CHANNELS 3 Zrotation Yrotation Xrotation
				End Site
				{
					OFFSET 0.0000 11.7343 0.0000
				}
			}
		}
		JOINT rfemur   
		{
			OFFSET -8.2817 0.0000 0.0000
			CHANNELS 3 Zrotation Yrotation Xrotation
			JOINT rtibia   
			{
				OFFSET 0.0000 -43.3627 0.0000
				CHANNELS 3 Zrotation Yrotation Xrotation
				JOINT rfoot    
				{
					OFFSET 0.0000 -38.2947 0.0000
					CHANNELS 3 Zrotation Yrotation Xrotation
					JOINT rtoes    
					{
						OFFSET 0.0000 0.0000 16.6054
						CHANNELS 3 Zrotation Yrotation Xrotation
						End Site
						{
							OFFSET 0.0000 0.0000 5.5351
						}
					}
				}
			}
		}
		JOINT lfemur   
		{
			OFFSET 8.2817 0.0000 0.0000
			CHANNELS 3 Zrotation Yrotation Xrotation
			JOINT ltibia   
			{
				OFFSET 0.0000 -43.3627 0.0000
				CHANNELS 3 Zrotation Yrotation Xrotation
				JOINT lfoot    
				{
					OFFSET 0.0000 -38.2947 0.0000
					CHANNELS 3 Zrotation Yrotation Xrotation
					JOINT ltoes    
					{
						OFFSET 0.0000 0.0000 16.6054
						CHANNELS 3 Zrotation Yrotation Xrotation
						End Site
						{
							OFFSET 0.0000 0.0000 5.5351
						}
					}
				}
			}
		}
	}
}
MOTION
Frames: 19
Frame Time: .0333333
12.636 82.425 25.856 6.68086 26.6507 32.1837 0 -0 0 5.77393 -6.26336 17.1913 20.4904 -10.5937 7.74793e-05 53.9568 -7.49352 8.46104 -4.58483e-06 89.0254 -4.50933e-06 -4.50349 2.81145 -0.110601 -12.1189 13.0231 3.57552e-06 -58.1536 25.9417 15.9283 0 -75.0771 -0 -2.82832 3.365 -0.0831014 6.35761 -14.6798 -4.31582 7.5314 -8.95166 -48.2561 -0 -0 41.4267 -2.38159e-05 -15.2623 -14.5967 -176.066 8.65166e-07 -8.27199 -9.27973 17.8864 -38.3242 -0 -0 64.1337 6.07682e-07 15.3301 -0.447893 -0.122796 1.29252e-06 -31.7584 
12.812 82.501 26.255 6.63023 26.2887 32.2801 0 -0 0 5.72005 -6.06206 17.213 20.4404 -10.6203 -9.38223e-05 53.8691 -7.54314 8.64424 -0.000276808 89.7803 -0.000276659 -4.55926 2.77922 -0.110699 -12.0586 13.1059 1.35176e-05 -58.179 26.1499 15.8659 0 -75.2712 -0 -2.80023 3.28251 -0.0803015 6.32732 -14.6966 -4.46308 7.43397 -8.77919 -47.9282 -0 -0 41.1438 -3.63245e-05 -15.1313 -14.6352 -176.091 5.57832e-07 -7.98684 -9.12913 16.9956 -39.3387 -0 -0 64.5767 -2.31941e-06 15.4146 -0.641497 -0.176904 -7.78077e-07 -31.15 
12.989 82.575 26.654 6.57286 25.9248 32.3641 0 -0 0 5.65847 -5.8535 17.251 20.3882 -10.6445 -5.42112e-05 53.7747 -7.59662 8.82996 -180 89.4524 -180 -4.61516 2.75235 -0.110902 -12.0061 13.1876 -0.000124106 -58.2002 26.3336 15.7839 0 -75.4821 -0 -2.75679 3.20037 -0.0769993 6.30668 -14.6994 -4.65034 7.33932 -8.61022 -47.5884 -0 -0 40.8543 5.77066e-05 -14.9944 -14.664 -176.121 5.10746e-06 -7.66906 -8.96373 16.0906 -40.3828 -0 -0 64.96 -4.0717e-06 15.4551 -0.806306 -0.222898 4.61185e-07 -30.5536 
13.168 82.65 27.057 6.50666 25.5612 32.4345 0 -0 0 5.59343 -5.64129 17.3059 20.3346 -10.661 -1.9818e-05 53.6702 -7.65668 9.0127 -180 88.6343 -180 -4.66567 2.72998 -0.111198 -11.964 13.2684 -1.55406e-05 -58.2154 26.4962 15.6803 1.06157e-06 -75.7108 -1.3658e-06 -2.70156 3.11514 -0.0735029 6.29453 -14.6886 -4.87595 7.25199 -8.44871 -47.2339 -0 -0 40.5558 0.000104664 -14.8454 -14.6828 -176.157 4.30372e-06 -7.32897 -8.77909 15.1785 -41.4513 -0 -0 65.2833 -3.35132e-06 15.4403 -0.94861 -0.262002 4.74547e-07 -29.9733 
13.348 82.723 27.461 6.43371 25.1934 32.4938 0 -0 0 5.51906 -5.42412 17.3747 20.2801 -10.6735 -8.22561e-05 53.559 -7.71744 9.19908 -180 87.9174 -180 -4.71255 2.71973 -0.111903 -11.9327 13.3526 4.77223e-05 -58.2217 26.6378 15.5622 2.30873e-06 -75.9713 -2.46616e-06 -2.63433 3.02615 -0.0695966 6.29541 -14.6662 -5.14113 7.16871 -8.29452 -46.8634 -0 -0 40.2459 -9.72868e-05 -14.6837 -14.6928 -176.197 -3.83653e-06 -6.98503 -8.58026 14.2662 -42.5452 -0 -0 65.5424 3.35107e-06 15.3721 -1.06181 -0.291897 -5.25631e-07 -29.4758 
13.529 82.796 27.869 6.3532 24.8257 32.5409 0 -0 0 5.43796 -5.20568 17.4565 20.2236 -10.6777 -5.69051e-06 53.4411 -7.78346 9.38255 -180 87.1945 -180 -4.7521 2.72015 -0.112902 -11.914 13.4406 1.75959e-05 -58.2186 26.7657 15.4295 1.10977e-06 -76.2603 -1.41381e-06 -2.55826 2.92934 -0.065403 6.30765 -14.6323 -5.44462 7.09273 -8.1509 -46.4793 -0 -0 39.9261 6.41296e-05 -14.508 -14.6991 -176.244 -2.05348e-06 -6.64665 -8.36566 13.3582 -43.6654 -0 -0 65.7389 4.04064e-07 15.2439 -1.15617 -0.315106 -1.41717e-06 -29.07 
13.712 82.866 28.279 6.26721 24.4559 32.581 0 -0 0 5.34791 -4.98662 17.5465 20.1652 -10.6744 8.31242e-05 53.3198 -7.85389 9.56428 -180 86.4874 -180 -4.78584 2.73294 -0.114203 -11.9071 13.5321 -1.06548e-05 -58.2015 26.8849 15.2858 0 -76.5841 -0 -2.47318 2.82224 -0.0609033 6.33254 -14.5938 -5.78525 7.02336 -8.01777 -46.0863 -0 -0 39.5959 -5.67555e-05 -14.3157 -14.7009 -176.294 2.08671e-06 -6.32307 -8.1408 12.4649 -44.8126 -0 -0 65.8698 -9.45868e-06 15.0556 -1.23613 -0.332506 1.07991e-07 -28.7802 
13.897 82.935 28.692 6.17652 24.0852 32.6125 0 -0 0 5.24805 -4.76837 17.6423 20.1054 -10.6636 -9.21171e-06 53.1982 -7.9314 9.74102 -180 85.7919 -180 -4.8143 2.75709 -0.115899 -11.9106 13.6261 -2.30113e-05 -58.1704 27.0031 15.1294 1.66397e-06 -76.9505 -2.09367e-06 -2.38025 2.70186 -0.0560976 6.36842 -14.5518 -6.16056 6.95983 -7.89662 -45.6828 -0 -0 39.2579 5.14974e-05 -14.1121 -14.7033 -176.349 -2.39806e-06 -6.01481 -7.9086 11.5905 -45.9852 -0 -0 65.9348 3.16467e-07 14.8096 -1.30475 -0.344895 5.74069e-07 -28.6663 
14.085 83 29.108 6.08254 23.7123 32.6405 0 -0 0 5.13578 -4.54986 17.7421 20.0425 -10.6484 1.93874e-05 53.0804 -8.01342 9.9142 -180 85.1178 -180 -4.84051 2.79221 -0.118001 -11.921 13.7261 9.46384e-06 -58.1242 27.1158 14.9704 1.21916e-06 -77.3563 -1.52288e-06 -2.27789 2.56713 -0.0510006 6.41397 -14.5101 -6.56747 6.90005 -7.78545 -45.2757 -0 -0 38.9214 -4.53491e-05 -13.8967 -14.707 -176.406 1.55111e-06 -5.72015 -7.67578 10.7446 -47.1849 -0 -0 65.9268 -3.40948e-06 14.5116 -1.37399 -0.3556 1.30577e-06 -28.6522 
14.275 83.062 29.528 5.98603 23.3366 32.6642 0 -0 0 5.01112 -4.3305 17.8392 19.9753 -10.6315 2.40041e-05 52.9685 -8.09894 10.0832 -180 84.4688 -180 -4.86649 2.83501 -0.120504 -11.9376 13.8318 -4.02029e-05 -58.063 27.2294 14.8124 0 -77.8035 -0 -2.16552 2.41706 -0.0456995 6.46608 -14.4722 -7.00184 6.84365 -7.68267 -44.8696 -0 -0 38.5926 -1.61572e-07 -13.6757 -14.7152 -176.463 -4.36938e-06 -5.42782 -7.44706 9.93542 -48.4053 -0 -0 65.8424 -5.53283e-06 14.1675 -1.45198 -0.366492 -3.7036e-07 -28.6993 
14.469 83.119 29.952 5.88835 22.9593 32.684 0 -0 0 4.87383 -4.1126 17.9339 19.9023 -10.6103 2.43542e-06 52.8661 -8.19269 10.2452 -180 83.8257 -180 -4.89213 2.88136 -0.1231 -11.9588 13.9354 1.9218e-05 -57.9908 27.3545 14.6489 1.15348e-06 -78.2918 -9.38921e-07 -2.04479 2.25025 -0.0401989 6.51994 -14.4388 -7.45751 6.79022 -7.59054 -44.4644 -0 -0 38.2758 5.53485e-05 -13.4502 -14.7268 -176.521 -3.96556e-06 -5.11432 -7.22577 9.16626 -49.6363 -0 -0 65.6666 -7.1359e-07 13.7843 -1.52295 -0.373608 -1.55191e-06 -28.9956 
14.667 83.17 30.381 5.78823 22.5768 32.6996 0 -0 0 4.72424 -3.89327 18.0227 19.8239 -10.5912 9.2434e-06 52.7728 -8.28793 10.4052 -180 83.2185 -180 -4.92052 2.92841 -0.125801 -11.9809 14.0448 -1.63575e-05 -57.9094 27.4825 14.4902 0 -78.8071 -0 -1.91286 2.06935 -0.0345999 6.57165 -14.4117 -7.9295 6.73855 -7.50437 -44.0651 -0 -0 37.982 -9.53898e-05 -13.2248 -14.7419 -176.578 1.22109e-06 -4.76592 -7.01839 8.44615 -50.8726 -0 -0 65.3898 -5.07186e-06 13.37 -1.60207 -0.380705 -8.51713e-07 -29.3189 
14.871 83.216 30.816 5.68467 22.1883 32.7083 0 -0 0 4.56353 -3.6734 18.1048 19.7394 -10.5746 -3.51495e-05 52.6897 -8.38329 10.5623 -180 82.6295 -180 -4.95107 2.97155 -0.1285 -12.001 14.1565 -6.65195e-05 -57.8236 27.6198 14.3334 1.77891e-06 -79.3578 -1.47576e-06 -1.77017 1.87596 -0.0289987 6.61677 -14.3899 -8.41219 6.68911 -7.42461 -43.672 -0 -0 37.7204 9.26429e-05 -13.0029 -14.7607 -176.633 1.5911e-06 -4.3608 -6.82742 7.77919 -52.0989 -0 -0 65.0006 4.82856e-06 12.933 -1.67644 -0.384897 -5.7541e-07 -29.7119 
15.081 83.255 31.258 5.57812 21.7959 32.711 0 -0 0 4.39358 -3.45318 18.1788 19.6484 -10.5625 -1.3959e-05 52.6151 -8.47531 10.7181 -180 82.07 -180 -4.98299 3.00805 -0.130902 -12.0165 14.2716 -5.80335e-05 -57.7359 27.7658 14.1818 1.87051e-06 -79.9299 -1.5675e-06 -1.61667 1.67327 -0.0236008 6.65092 -14.3697 -8.90011 6.64236 -7.3501 -43.2865 -0 -0 37.4964 -2.15502e-05 -12.7845 -14.7796 -176.687 3.94252e-07 -3.8815 -6.65629 7.16886 -53.3047 -0 -0 64.4868 -7.51701e-06 12.4787 -1.73796 -0.384499 -2.07689e-06 -30.1294 
15.297 83.287 31.709 5.46502 21.3972 32.7024 0 -0 0 4.21716 -3.23369 18.2436 19.5513 -10.5556 -9.67841e-06 52.5486 -8.56132 10.8742 -180 81.5382 -180 -5.01469 3.03503 -0.132902 -12.0271 14.3892 -7.29445e-05 -57.652 27.9223 14.0329 2.36737e-06 -80.5139 -2.79573e-06 -1.45272 1.46475 -0.0186008 6.67058 -14.3518 -9.38861 6.59988 -7.28093 -42.9108 -0 -0 37.3192 3.76211e-05 -12.5708 -14.7965 -176.741 6.87687e-07 -3.31919 -6.50698 6.61755 -54.4787 -0 -0 63.839 -3.39289e-06 12.012 -1.76992 -0.3765 8.55712e-07 -30.5739 
15.52 83.312 32.169 5.34317 20.9929 32.6823 0 -0 0 4.03828 -3.01492 18.299 19.4508 -10.5555 5.78776e-05 52.4834 -8.63726 11.0326 -180 81.0368 -180 -5.04384 3.05093 -0.134399 -12.03 14.5147 5.27496e-05 -57.5751 28.0843 13.8924 1.27004e-06 -81.1102 -1.48413e-06 -1.27886 1.2553 -0.0139995 6.67362 -14.3307 -9.87449 6.56319 -7.21619 -42.5428 -0 -0 37.1945 0.000126413 -12.3618 -14.8095 -176.794 -4.76105e-07 -2.67915 -6.3815 6.12884 -55.6116 -0 -0 63.0507 5.73282e-06 11.5338 -1.76869 -0.360902 2.14128e-06 -30.9151 
15.75 83.329 32.639 5.21315 20.5851 32.6499 0 -0 0 3.85786 -2.80208 18.3447 19.348 -10.5593 3.62702e-05 52.4203 -8.70295 11.1938 -180 80.5641 -180 -5.0667 3.05572 -0.1352 -12.0282 14.6424 5.89439e-05 -57.5098 28.259 13.7505 3.9587e-06 -81.7164 -4.11535e-06 -1.09781 1.0452 -0.0100002 6.65966 -14.3034 -10.3556 6.53436 -7.16083 -42.1868 -0 -0 37.1284 7.15532e-05 -12.1515 -14.8135 -176.849 2.90421e-07 -1.93283 -6.28246 5.70067 -56.6948 -0 -0 62.1194 -3.343e-06 11.0485 -1.70598 -0.333102 1.79943e-06 -31.3088 
15.986 83.338 33.12 5.07098 20.1737 32.6045 0 -0 0 3.68158 -2.59307 18.3795 19.2466 -10.569 -6.19279e-05 52.352 -8.75599 11.3573 -180 80.1258 -180 -5.08147 3.05007 -0.135401 -12.0187 14.7793 1.24915e-05 -57.4565 28.4363 13.6159 0 -82.3221 -0 -0.910002 0.841093 -0.00669998 6.62948 -14.2687 -10.8308 6.51551 -7.11233 -41.8413 -0 -0 37.1248 -7.53503e-05 -11.9399 -14.8086 -176.906 1.47789e-07 -1.12079 -6.21101 5.33716 -57.7261 -0 -0 61.0471 5.47432e-06 10.5514 -1.58848 -0.295804 -2.43226e-06 -31.5773 
16.229 83.338 33.613 4.91499 19.7605 32.5441 0 -0 0 3.51176 -2.39041 18.4033 19.1488 -10.5822 -8.17881e-06 52.2742 -8.79701 11.5202 -180 79.7055 -180 -5.08543 3.03646 -0.134899 -12.003 14.9244 2.78331e-05 -57.4167 28.6176 13.4854 1.98737e-06 -82.9257 -2.24928e-06 -0.717907 0.644497 -0.00400007 6.58497 -14.2269 -11.2992 6.50856 -7.07386 -41.507 -0 -0 37.1854 -5.61805e-05 -11.7236 -14.7918 -176.967 2.26834e-08 -0.242697 -6.17017 5.03785 -58.7041 -0 -0 59.8384 -1.43349e-06 10.0419 -1.40757 -0.249195 6.43214e-07 -31.7871 
